<svg xmlns="http://www.w3.org/2000/svg" viewBox="0 0 1782.5 3215.8"><path d="M1177.9 11.5l-5.4 3.1-280.6 180.9V527l4.2-2.4 281.8 164.1v.2l-280 163-282-164.2L770 598l-172.2 96-6.8-4.2-278.3 162-282-164.2 280.2-163.1 206.1 120-201.4-123L20.1 688.7l-1.6-.9-2.8 329.7 301.2 166.8v342.8l210.9 112.3-206.1-120V1202l279.2 162.5V1682l-1.2-.7 5.6 346.8-291.1 167.2 6.9 342.7 213.4 110.7-212.8-123.9v-317.5l279.2 162.5v313.3l15.2 7.9-.4 19.7 277.9 161.8v316.7l9-5.5v-311.2l275.5-160.4v250.7l12.9-265.9 292.4-171.1 1.8-330.1 202.5-129.5-199.9 116.4v-315.4l275.5-160.4v311l18.1-11.6-12.2-324.4 1-.5-27.6-16.1-263.4-145.8v-329.6l-287.3-168.2-2.7-326.8 12.6-6.8-.7-.4 280.2-163.1 4.3 2.5V174.4l-7-4.1v3.6L1199.5 11.5V7.8l-8.6-5-12.9 8.3v.4zM308.1 1179.3L29 1016.8V699.3l279.1 162.5v317.5zm598.8-665.2V196.7L1186 359.2v317.5L906.9 514.1zm-4.5 347.7l275.5-160.4v315.4l-275.5 160.4V861.8zm4.5 340.2l279.2 162.5V1682l-279.2-162.5V1202zm271 492v.2l-280 163-282-164.2 280.2-163.1 281.8 164.1zm0 12.8v315.4l-275.5 160.4v-315.4l275.5-160.4zm-563.6-2.1l279.2 162.5v317.5l-279.2-162.5v-317.5zm-4.5-24.8v-315.4l275.5-160.4v315.4l-275.5 160.4zm4.5-980.6l279.2 162.5v317.5l-279.2-162.5V699.3zm-297.2 477.9V861.8l275.5-160.4v315.4l-275.5 160.4zm6.2 13.2l280.2-163.1 281.8 164.1v.2l-280 163-282-164.2zm0 1005.3l280.2-163.1 281.8 164.1v.2l-280 163-282-164.2zm286.5 489.5v-315.4l275.5-160.4v315.4l-275.5 160.4zm568.1 14.3l-280 163-282-164.2 280.2-163.1 281.8 164.1v.2zm8.1-12.2l-279.2-162.5v-317.5l279.2 162.5v317.5zm284.6-162.5L1195 2685.2v-315.4l275.5-160.4v315.4zm0-328l-280 163-282-164.2 280.2-163.1 281.8 164.1v.2zm8.1-12.1l-279.2-162.5v-317.5l279.2 162.5v317.5zM1195 1679.9v-315.4l275.5-160.4v315.4L1195 1679.9zm286.4-150l281.8 164.1v.2l-280 163-282-164.2 280.2-163.1zm-10.8-338.6v.2l-280 163-282-164.2 280.2-163.1 281.8 164.1zm0-677.2L1195 674.5V359.2l275.5-160.4v315.3zm0-328.1v.2l-280 163L908.5 185l280.2-163.1L1470.6 186z" fill="#fff"/><path fill="#da2344" d="M1188.5 698.1l6.2 323.6-1.3-2.3 287.7 174.7 2.3 1.4v2.7l2.1 329.6-3.6-6.1 294.1 162.6 4.5 2.5.1 5.2 1.9 339.1v5.7l-4.9 3-287.2 174.1 5.5-9.8-.4 333.6v7.4l-6.5 3.7-296.7 169.7 7.1-12.2-1.1 319v8.3l-7.1 4.2-290.6 173.6-7.3 4.4-7.6-4-290.2-151.5-8.7-4.6.2-9.8 6-352.7 8.2 14.3-298.6-168.8-8.3-4.7v-9.5l-.6-322.7v-9.5l8.2-4.8 294.9-173.7-8.2 14.1 4.2-339.9 8.9 14.7-295.9-151.1-8.8-4.5v-9.8l.4-348.4 8.3 13.8L8 1042.6l-8-4.3.1-9 5.1-336.1.1-8.2 7.1-4 296.1-166.3 6.6-3.7 6.5 3.8 288.6 169.7-12.2.2 288.4-178.3-5 8.9 2-336.9V173l4.6-2.6L1185.9 2.1l3.7-2.1 3.6 2 295 168 2.7 1.5v2.9l-2.3 352.7v1.7l-1.5.9-294.7 162.5 291.9-167.6-1.5 2.5-2.2-352.7 2.6 4.5-297.2-164h7.3L897.1 186.3l4.6-7.9.7 337 .1 5.7-5 3.2-287 180.4-5.9 3.8-6.3-3.6-289.9-167.4h13.1l-295 168.3 7.2-12.2-3.7 336.1-7.9-13.4 298.4 158.8 8.2 4.4v9.4l.5 348.4-8.8-14.3 296.1 150.7 9 4.5-.1 10.2-3.7 339.9-.1 9.3-8 4.7L318.7 2216l8.2-14.3v322.7l-8.2-14.1L617 2679.5l8.4 4.7-.2 9.6-6.6 352.7-8.4-14.3 289.6 152.6-14.9.4 291.3-172.6-7.2 12.5 2.2-318.9.1-8.2 7.1-4 297.9-167.5-6.5 11.1 3.1-333.7.1-6.5 5.5-3.3 288.6-171.7-4.9 8.7.6-339 4.6 7.7-292.3-165.9-3.6-2.1v-4l2.1-329.6 2.4 4.2-285.5-178.3-1.3-.8-.1-1.5z"/></svg>