<svg version="1.1" id="Layer_1" xmlns="http://www.w3.org/2000/svg" xmlns:xlink="http://www.w3.org/1999/xlink" x="0" y="0" viewBox="0 0 1782.5 3215.8" xml:space="preserve"><style>.st0{fill:#3b3d41}</style><path class="st0" d="M1188.5 698.1l6.2 323.6-1.3-2.3 287.7 174.7 2.3 1.4v2.7l2.1 329.6-3.6-6.1 294.1 162.6 4.5 2.5.1 5.2 1.9 339.1v5.7l-4.9 3-287.2 174.1 5.5-9.8-.4 333.6v7.4l-6.5 3.7-296.7 169.7 7.1-12.2-1.1 319v8.3l-7.1 4.2-290.6 173.6-7.3 4.4-7.6-4-290.2-151.5-8.7-4.6.2-9.8 6-352.7 8.2 14.3-298.6-168.8-8.3-4.7v-9.5l-.6-322.7v-9.5l8.2-4.8 294.9-173.7-8.2 14.1 4.2-339.9 8.9 14.7-295.9-151.1-8.8-4.5v-9.8l.4-348.4 8.3 13.8L8 1042.6l-8-4.3.1-9 5.1-336.1.1-8.2 7.1-4 296.1-166.3 6.6-3.7 6.5 3.8 288.6 169.7-12.2.2 288.4-178.3-5 8.9 2-336.9V173l4.6-2.6L1185.9 2.1l3.7-2.1 3.6 2 295 168 2.7 1.5v2.9l-2.3 352.7v1.7l-1.5.9-294.7 162.5 291.9-167.6-1.5 2.5-2.2-352.7 2.6 4.5-297.2-164h7.3L897.1 186.3l4.6-7.9.7 337 .1 5.7-5 3.2-287 180.4-5.9 3.8-6.3-3.6-289.9-167.4h13.1l-295 168.3 7.2-12.2-3.7 336.1-7.9-13.4 298.4 158.8 8.2 4.4v9.4l.5 348.4-8.8-14.3 296.1 150.7 9 4.5-.1 10.2-3.7 339.9-.1 9.3-8 4.7L318.7 2216l8.2-14.3v322.7l-8.2-14.1L617 2679.5l8.4 4.7-.2 9.6-6.6 352.7-8.4-14.3 289.6 152.6-14.9.4 291.3-172.6-7.2 12.5 2.2-318.9.1-8.2 7.1-4 297.9-167.5-6.5 11.1 3.1-333.7.1-6.5 5.5-3.3 288.6-171.7-4.9 8.7.6-339 4.6 7.7-292.3-165.9-3.6-2.1v-4l2.1-329.6 2.4 4.2-285.5-178.3-1.3-.8-.1-1.5z"/><path class="st0" d="M846.1 2758l-9.5 5.5s0 .1.1.1l9.4-5.6"/><path class="st0" d="M999 2785.8c42.7-51.7-49.9-115.4-76-43.9l-24.5-14.2-24.5 14.1c-8-14.4-8.6-26.2-36.1-32-19.8-3.1-46.7 18.7-50.2 38.7-3.9 21 8.5 35.8 10.3 37.2l-22.1 12.8v141.6l41.6 24c.5.3 38.3 22.1 38.8 22.4l42.1 24.3L1021 2940v-141.6l-22-12.6zm-3.6-5.2c-19.1 10.7-41.8 17.1-63.7 20-2.9.5-5.6.9-8.4 1.4.2-3 .2-6.2-.4-9.2 13.8-5.8 26.4-12.2 38-21.5 1.8-1.5 3.6-3 5.2-4.6 5.4-5.2 10.7-11.7 12.8-19 7.7-.7 15.8.3 24.5 3.6 2.4 14.8-6.2 27-8 29.3M955 2768c-7.4 5.7-17.8 11.9-32.4 18.2 5.4-7.4 13-16.4 22.5-23.9l9.9 5.7zm-4-9.9c6.3-4.1 13.3-7.4 20.9-9.2-1.5 3.4-4.8 8.5-11.5 14.6l-9.4-5.4zm-25.4-7.5c1.8-3.7 8.7-17.3 10.7-21.2 18-23.4 51.9-13.9 65.2 14.7-8.6-2.7-17.2-3.4-25.8-2.3h-.1c-16.6 2.2-31.4 11.7-43.2 23.3-5.2 5.2-10.7 11.6-14.8 17.3-1.6-1.8-3.6-3.3-5.7-4.5.4-.8 2.7-5.4 3.2-6.3 1.6-3.3 8.6-17.3 10.5-21m-11.8 59.1c-1.6 2-3.6 3.7-6 4.8-2.9 1.5-6.3 1.6-9.6 1.5-4.4.2-8.8-1-12.1-3.9-6.7-5.6-7.3-16.8-2.7-23.8 4.4-6.8 13.1-7.7 20.4-6.6 12.7 1.9 17.3 18.5 10 28m-15.3-74.7l21.7 12.5c-1.1 2.1-13.7 27.1-14.2 28.3-1.1-.2-2.2-.4-3.3-.5-3.6-.1-8-.3-11.4.6-1.2-2.3-12.8-25.5-14.3-28.4l21.5-12.5zm-37.7-5.6c5.2 10.3 13.1 26.1 18.3 36.4 1.8 3.6 4.5 8.9 6.3 12.5-2.1 1.2-4 2.8-5.5 4.6-4.6-6.4-10.5-13.4-16.4-19-3.5-3.4-7.3-6.5-11.2-9.3-16.2-11.8-37-16.9-56.5-10.5 13-28.6 47-38 65-14.7m-9.2 32.6c8.5 6.6 17.4 16.7 22.7 24.2-14.8-6.3-25.2-12.6-32.7-18.4l10-5.8zm-15 1.6s0-.1 0 0c-6.9-6.2-10.2-11.5-11.6-14.9 7.1 1.6 14.2 4.7 21.1 9.3h.1l-9.6 5.6zm-43.1-12.2c8.2-3.2 16.4-4.4 24.4-3.8 8.5 23.2 35 35.8 56.8 45.5-.1.3-.1.6-.2 1-.4 2.6-.3 5.5-.2 8.1-23.8-3.3-49.2-8.6-70.1-20.1-5.6-3.1-12-13.8-10.7-30.7m24.1 205.5l-35.4-20.5v-95.7l36.5 21.1-1.1 95.1zm1.1-102.2l-36.5-21.2v-27.8L819 2827l-.3 27.7zm-33.4-54.4l19.3-11.1c11.1 5.4 29.1 12.9 47.5 15.5l-29.5 17.2-37.3-21.6zm68.2 39.4l-3.1 1.8c0 26.2-.2 106.8-.2 134.2.1.1.2.2.4.2-6.6-3.8-18.6-10.8-26.7-15.4.3-27.5 1.1-106.9 1.4-133 .4-.2 34.7-20.2 36.3-21.2 5.7 1 10.9 1.8 14.5 2.4 2.1 4.9 5.9 8.9 10.6 11.2l-33.2 19.8zm41.9 162.2l-39-22.5.2-95.5 39.5 22.9-.7 95.1zm.7-102.4l-39.6-22.9.1-27.9 39.7 22.9-.2 27.9zm-36.4-56.2l35.5-21.1c1.9.1 5.5.1 7.4 0l35.8 21.2-38.9 22.8-39.8-22.9zm80.9 6.1v26.7l-38.2 21.4.2-25.8 38-22.3zm-38.9 152.4l.7-97.1 38.3-21.4.2 96-39.2 22.5zm45.3-26.3c0-28-.2-107.7-.2-134.3l-2.3-1.3L911 2820c4.8-2.4 8.5-6.4 10.6-11.3 3.7-.6 8.9-1.5 14.4-2.4.9.5 35.9 20.9 35.9 20.9.3 26 1.1 105.8 1.4 133l-26.3 15.3zm-1.4-171c18-2.5 36-10.1 46.8-15.4l19.4 11.2-36.5 21.4-29.7-17.2zm69.2 132l-35.3 20.4-1-94.8 36.3-20.3v94.7zm0-101.7c-1.2 0-35.2 19.7-36.3 20.1l-.3-27.6 36.6-21.5v29z"/><path class="st0" d="M874.5 2798.4v.2c-.1-.1-.1-.2-.1-.2h.1m485.7-2514.6l-63.5-36.8-20.8 37.4-78.6 136.5.6 74.6 63-37.9 99.3-173.8zm-59.3-25.1l48.3 27.8-15.7 27.7-48.2-28.4 15.6-27.1zm-95.4 223l-.2-14.3 11.9 7.2-11.7 7.1zm19.4-11.6l-19.7-11.8-.3-23.9 40.5 23.4-20.5 12.3zm29.5-17.2l-50.1-28.6 75.9-131.6 50.2 29.3-76 130.9zm-80.2 8.8c-.1-5.6-.8-12.4-6-14.6-5-2.1-11.5.9-22.2 10.6.6-1.9 1.2-3.9 1.8-5.7 4-12.7 9.5-30 7.1-42.9-1.4-7.4-2-10.8-5.8-11.1-3.6-.3-4.6 2.8-6.1 7.1-2.7 7.9-8.4 24.4-24.9 35.3-.8.5-1.4.9-2 1.2 1.4-5.5 6.7-17.1 10.8-26 14.2-31.1 22.8-52 13.3-59.8-3.4-2.7-6.4-2.6-8.3-2-7.1 2.1-10.9 13.6-16.1 29.5-5.6 17.1-12.7 38.5-24.2 44.4-2.1 1.1-3.4 1.5-4.1 1.6-.3-4 4.1-16.2 8.1-27 6-16.6 13.5-37.3 17.5-59.3 2.1-11.3 2.3-18.2-2.8-19.9-4.2-1.3-9.1.2-26.8 32.9-8.8 16.2-16.8 32.9-16.9 33-.9 2-.1 4.3 1.8 5.2 2 .9 4.3.1 5.2-1.8 11.4-23.8 25.9-50.4 32.9-59.1-.1 1.8-.5 4.5-1.1 8.2-3.9 21.3-11.2 41.6-17.1 58-7.5 20.8-11.3 31.3-6 36 4.1 3.6 10.6.3 13-.9 14.4-7.4 21.7-29.4 28.1-48.9 3.3-9.9 7.7-23.5 10.9-24.4.1 0 .5.1 1.2.6.5.4 2.9 3.2-1.7 17.3-3.2 10-8.9 22.2-13.8 33.1-10.6 23.1-14.6 32.6-9.7 36.8 4 3.4 9.9-.6 12.4-2.2 14.2-9.5 21.3-22.4 25.1-31.8.2 10.6-4.1 24.1-7.3 34.4-3.8 11.9-5.3 16.8-1.3 19.3 3.8 2.4 7.9-1.5 10.7-4 12.2-11.3 15.3-10.7 15.4-10.7.1 0 1.2 1.1 1.3 7.6.2 15.6 19.5 31.1 20.4 31.8.7.6 1.6.9 2.4.9 1.2 0 2.3-.5 3.1-1.5 1.3-1.7 1.1-4.2-.6-5.5-5.1-3.7-17.6-15.8-17.7-25.7"/><defs><path id="SVGID_1_" d="M1188.5 698.1l6.2 323.6-1.3-2.3 287.7 174.7 2.3 1.4v2.7l2.1 329.6-3.6-6.1 294.1 162.6 4.5 2.5.1 5.2 1.9 339.1v5.7l-4.9 3-287.2 174.1 5.5-9.8-.4 333.6v7.4l-6.5 3.7-296.7 169.7 7.1-12.2-1.1 319v8.3l-7.1 4.2-290.6 173.6-7.3 4.4-7.6-4-290.2-151.5-8.7-4.6.2-9.8 6-352.7 8.2 14.3-298.6-168.8-8.3-4.7v-9.5l-.6-322.7v-9.5l8.2-4.8 294.9-173.7-8.2 14.1 4.2-339.9 8.9 14.7-295.9-151.1-8.8-4.5v-9.8l.4-348.4 8.3 13.8L8 1042.6l-8-4.3.1-9 5.1-336.1.1-8.2 7.1-4 296.1-166.3 6.6-3.7 6.5 3.8 288.6 169.7-12.2.2 288.4-178.3-5 8.9 2-336.9V173l4.6-2.6L1185.9 2.1l3.7-2.1 3.6 2 295 168 2.7 1.5v2.9l-2.3 352.7v1.7l-1.5.9-294.7 162.5 291.9-167.6-1.5 2.5-2.2-352.7 2.6 4.5-297.2-164h7.3L897.1 186.3l4.6-7.9.7 337 .1 5.7-5 3.2-287 180.4-5.9 3.8-6.3-3.6-289.9-167.4h13.1l-295 168.3 7.2-12.2-3.7 336.1-7.9-13.4 298.4 158.8 8.2 4.4v9.4l.5 348.4-8.8-14.3 296.1 150.7 9 4.5-.1 10.2-3.7 339.9-.1 9.3-8 4.7L318.7 2216l8.2-14.3v322.7l-8.2-14.1L617 2679.5l8.4 4.7-.2 9.6-6.6 352.7-8.4-14.3 289.6 152.6-14.9.4 291.3-172.6-7.2 12.5 2.2-318.9.1-8.2 7.1-4 297.9-167.5-6.5 11.1 3.1-333.7.1-6.5 5.5-3.3 288.6-171.7-4.9 8.7.6-339 4.6 7.7-292.3-165.9-3.6-2.1v-4l2.1-329.6 2.4 4.2-285.5-178.3-1.3-.8-.1-1.5z"/></defs><clipPath id="SVGID_2_"><use xlink:href="#SVGID_1_" overflow="visible"/></clipPath><path clip-path="url(#SVGID_2_)" fill="#da2344" d="M758.7 2070.5l-922-276-60-2118 1556 24 440 694-620 326z"/></svg>