<svg xmlns="http://www.w3.org/2000/svg" width="218.972" height="185.284"><path d="M75.798 0H25.266C18.248 0 12.283 2.455 7.369 7.369 2.457 12.281 0 18.246 0 25.267v50.531c0 7.018 2.457 12.982 7.369 17.896 4.914 4.912 10.879 7.369 17.896 7.369h29.478c3.51 0 6.493 1.229 8.947 3.686 2.458 2.455 3.686 5.439 3.686 8.949v4.211c0 9.297-3.29 17.238-9.869 23.818-6.58 6.578-14.52 9.869-23.818 9.869h-8.423c-2.28 0-4.254.832-5.921 2.5-1.666 1.666-2.5 3.639-2.5 5.922v16.844c0 2.281.835 4.254 2.5 5.922 1.667 1.666 3.641 2.5 5.921 2.5h8.423c9.125 0 17.83-1.775 26.121-5.33 8.29-3.553 15.462-8.355 21.516-14.408 6.053-6.055 10.855-13.227 14.409-21.516 3.553-8.291 5.329-16.998 5.329-26.121V25.267c0-7.021-2.455-12.985-7.369-17.897C88.782 2.455 82.817 0 75.798 0zm23.265 117.909c0 8.808-1.738 17.331-5.167 25.333-3.438 8.017-8.143 15.045-13.985 20.89-5.845 5.844-12.873 10.549-20.89 13.984-7.999 3.429-16.522 5.168-25.333 5.168h-8.423c-1.744 0-3.218-.626-4.508-1.915-1.288-1.289-1.914-2.764-1.914-4.507v-16.844c0-1.744.626-3.219 1.915-4.508 1.288-1.288 2.762-1.914 4.507-1.914h8.423c9.804 0 18.293-3.518 25.232-10.455 6.938-6.938 10.455-15.428 10.455-25.232v-4.211c0-4.046-1.438-7.533-4.272-10.364-2.829-2.833-6.315-4.271-10.36-4.271H25.266c-6.524 0-11.916-2.219-16.482-6.783C4.219 87.714 2 82.322 2 75.798V25.267C2 18.74 4.219 13.348 8.783 8.784S18.739 2 25.266 2h50.532c6.528 0 11.92 2.219 16.482 6.783 4.564 4.563 6.783 9.955 6.783 16.483v92.643zm112.54-110.54C206.69 2.455 200.726 0 193.706 0h-50.532c-7.018 0-12.982 2.455-17.897 7.369-4.912 4.912-7.369 10.877-7.369 17.897v50.531c0 7.018 2.457 12.982 7.369 17.896 4.915 4.912 10.88 7.369 17.897 7.369h29.478c3.51 0 6.492 1.229 8.947 3.686 2.457 2.455 3.686 5.439 3.686 8.949v4.211c0 9.297-3.291 17.238-9.87 23.818-6.579 6.578-14.519 9.869-23.818 9.869h-8.422c-2.28 0-4.255.832-5.922 2.5-1.665 1.666-2.5 3.639-2.5 5.922v16.844c0 2.281.835 4.254 2.5 5.922 1.667 1.666 3.642 2.5 5.922 2.5h8.422c9.125 0 17.831-1.775 26.122-5.33 8.289-3.553 15.461-8.355 21.515-14.408 6.054-6.055 10.856-13.227 14.409-21.516 3.554-8.291 5.33-16.998 5.33-26.121V25.267c-.001-7.021-2.456-12.986-7.37-17.898zm5.369 110.54c0 8.809-1.739 17.332-5.168 25.333-3.437 8.017-8.142 15.045-13.985 20.89-5.845 5.844-12.872 10.548-20.889 13.984-7.999 3.429-16.522 5.168-25.334 5.168h-8.422c-1.744 0-3.219-.626-4.508-1.915-1.287-1.289-1.914-2.764-1.914-4.507v-16.844c0-1.744.626-3.219 1.915-4.508 1.287-1.288 2.761-1.914 4.507-1.914h8.422c9.805 0 18.294-3.518 25.232-10.455 6.938-6.938 10.456-15.429 10.456-25.232v-4.211c0-4.045-1.438-7.531-4.271-10.364-2.832-2.833-6.318-4.271-10.361-4.271h-29.478c-6.524 0-11.916-2.219-16.483-6.784-4.564-4.565-6.783-9.957-6.783-16.481V25.267c0-6.527 2.219-11.919 6.783-16.483C131.256 4.219 136.647 2 143.174 2h50.532c6.528 0 11.92 2.219 16.482 6.783 4.564 4.563 6.783 9.955 6.783 16.483v92.643z" fill="#E2E2E2"/></svg>