<?xml version="1.0" encoding="utf-8"?>
<!-- Generator: Adobe Illustrator 24.2.3, SVG Export Plug-In . SVG Version: 6.00 Build 0)  -->
<svg version="1.1" id="Layer_1" xmlns="http://www.w3.org/2000/svg" xmlns:xlink="http://www.w3.org/1999/xlink" x="0px" y="0px"
	 viewBox="0 0 1782.5 3215.8" style="enable-background:new 0 0 1782.5 3215.8;" xml:space="preserve">
<style type="text/css">
	.st0{fill:#FFFFFF;}
	.st1{fill:#DA2344;}
</style>
<path class="st0" d="M1177.9,11.5l-5.4,3.1L891.9,195.5V527l4.2-2.4l281.8,164.1v0.2l-280,163l-282-164.2L770,598l-172.2,96
	l-6.8-4.2l-278.3,162l-282-164.2l280.2-163.1l206.1,120L315.6,521.5L20.1,688.7l-1.6-0.9l-2.8,329.7l301.2,166.8v342.8l210.9,112.3
	l-206.1-120V1202l279.2,162.5V1682l-1.2-0.7l5.6,346.8l-291.1,167.2l6.9,342.7l213.4,110.7l-212.8-123.9v-317.5l279.2,162.5v313.3
	l15.2,7.9l-0.4,19.7l277.9,161.8v316.7l9-5.5v-311.2l275.5-160.4v250.7l12.9-265.9l292.4-171.1l1.8-330.1l202.5-129.5l-199.9,116.4
	v-315.4l275.5-160.4v311l18.1-11.6l-12.2-324.4l1-0.5l-27.6-16.1l-263.4-145.8v-329.6l-287.3-168.2l-2.7-326.8l12.6-6.8l-0.7-0.4
	l280.2-163.1l4.3,2.5V174.4l-7-4.1v3.6L1199.5,11.5V7.8l-8.6-5l-12.9,8.3V11.5z M308.1,1179.3L29,1016.8V699.3l279.1,162.5V1179.3z
	 M906.9,514.1V196.7L1186,359.2v317.5L906.9,514.1z M902.4,861.8l275.5-160.4v315.4l-275.5,160.4V861.8z M906.9,1202l279.2,162.5
	V1682l-279.2-162.5V1202z M1177.9,1694v0.2l-280,163l-282-164.2l280.2-163.1L1177.9,1694z M1177.9,1706.8v315.4l-275.5,160.4v-315.4
	L1177.9,1706.8z M614.3,1704.7l279.2,162.5v317.5l-279.2-162.5V1704.7z M609.8,1679.9v-315.4l275.5-160.4v315.4L609.8,1679.9z
	 M614.3,699.3l279.2,162.5v317.5l-279.2-162.5V699.3z M317.1,1177.2V861.8l275.5-160.4v315.4L317.1,1177.2z M323.3,1190.4
	l280.2-163.1l281.8,164.1v0.2l-280,163L323.3,1190.4z M323.3,2195.7l280.2-163.1l281.8,164.1v0.2l-280,163L323.3,2195.7z
	 M609.8,2685.2v-315.4l275.5-160.4v315.4L609.8,2685.2z M1177.9,2699.5l-280,163l-282-164.2l280.2-163.1l281.8,164.1V2699.5z
	 M1186,2687.3l-279.2-162.5v-317.5l279.2,162.5V2687.3z M1470.6,2524.8L1195,2685.2v-315.4l275.5-160.4V2524.8z M1470.6,2196.8
	l-280,163l-282-164.2l280.2-163.1l281.8,164.1V2196.8z M1478.7,2184.7l-279.2-162.5v-317.5l279.2,162.5V2184.7z M1195,1679.9v-315.4
	l275.5-160.4v315.4L1195,1679.9z M1481.4,1529.9l281.8,164.1v0.2l-280,163l-282-164.2L1481.4,1529.9z M1470.6,1191.3v0.2l-280,163
	l-282-164.2l280.2-163.1L1470.6,1191.3z M1470.6,514.1L1195,674.5V359.2l275.5-160.4V514.1z M1470.6,186v0.2l-280,163L908.5,185
	l280.2-163.1L1470.6,186z"/>
<polygon class="st1" points="1188.5,698.1 1194.7,1021.7 1193.4,1019.4 1481.1,1194.1 1483.4,1195.5 1483.4,1198.2 1485.5,1527.8 
	1481.9,1521.7 1776,1684.3 1780.5,1686.8 1780.6,1692 1782.5,2031.1 1782.5,2036.8 1777.6,2039.8 1490.4,2213.9 1495.9,2204.1 
	1495.5,2537.7 1495.5,2545.1 1489,2548.8 1192.3,2718.5 1199.4,2706.3 1198.3,3025.3 1198.3,3033.6 1191.2,3037.8 900.6,3211.4 
	893.3,3215.8 885.7,3211.8 595.5,3060.3 586.8,3055.7 587,3045.9 593,2693.2 601.2,2707.5 302.6,2538.7 294.3,2534 294.3,2524.5 
	293.7,2201.8 293.7,2192.3 301.9,2187.5 596.8,2013.8 588.6,2027.9 592.8,1688 601.7,1702.7 305.8,1551.6 297,1547.1 297,1537.3 
	297.4,1188.9 305.7,1202.7 8,1042.6 0,1038.3 0.1,1029.3 5.2,693.2 5.3,685 12.4,681 308.5,514.7 315.1,511 321.6,514.8 
	610.2,684.5 598,684.7 886.4,506.4 881.4,515.3 883.4,178.4 883.4,173 888,170.4 1185.9,2.1 1189.6,0 1193.2,2 1488.2,170 
	1490.9,171.5 1490.9,174.4 1488.6,527.1 1488.6,528.8 1487.1,529.7 1192.4,692.2 1484.3,524.6 1482.8,527.1 1480.6,174.4 
	1483.2,178.9 1186,14.9 1193.3,14.9 897.1,186.3 901.7,178.4 902.4,515.4 902.5,521.1 897.5,524.3 610.5,704.7 604.6,708.5 
	598.3,704.9 308.4,537.5 321.5,537.5 26.5,705.8 33.7,693.6 30,1029.7 22.1,1016.3 320.5,1175.1 328.7,1179.5 328.7,1188.9 
	329.2,1537.3 320.4,1523 616.5,1673.7 625.5,1678.2 625.4,1688.4 621.7,2028.3 621.6,2037.6 613.6,2042.3 318.7,2216 326.9,2201.7 
	326.9,2524.4 318.7,2510.3 617,2679.5 625.4,2684.2 625.2,2693.8 618.6,3046.5 610.2,3032.2 899.8,3184.8 884.9,3185.2 
	1176.2,3012.6 1169,3025.1 1171.2,2706.2 1171.3,2698 1178.4,2694 1476.3,2526.5 1469.8,2537.6 1472.9,2203.9 1473,2197.4 
	1478.5,2194.1 1767.1,2022.4 1762.2,2031.1 1762.8,1692.1 1767.4,1699.8 1475.1,1533.9 1471.5,1531.8 1471.5,1527.8 1473.6,1198.2 
	1476,1202.4 1190.5,1024.1 1189.2,1023.3 1189.1,1021.8 "/>
</svg>
