<?xml version="1.0" encoding="utf-8"?>
<!-- Generator: Adobe Illustrator 24.2.3, SVG Export Plug-In . SVG Version: 6.00 Build 0)  -->
<svg version="1.1" id="Layer_1" xmlns="http://www.w3.org/2000/svg" xmlns:xlink="http://www.w3.org/1999/xlink" x="0px" y="0px"
	 viewBox="0 0 1782.5 3215.8" style="enable-background:new 0 0 1782.5 3215.8;" xml:space="preserve">
<style type="text/css">
	.st0{fill:#3B3D41;}
	.st1{clip-path:url(#SVGID_2_);fill:#DA2344;}
</style>
<polygon class="st0" points="1188.5,698.1 1194.7,1021.7 1193.4,1019.4 1481.1,1194.1 1483.4,1195.5 1483.4,1198.2 1485.5,1527.8 
	1481.9,1521.7 1776,1684.3 1780.5,1686.8 1780.6,1692 1782.5,2031.1 1782.5,2036.8 1777.6,2039.8 1490.4,2213.9 1495.9,2204.1 
	1495.5,2537.7 1495.5,2545.1 1489,2548.8 1192.3,2718.5 1199.4,2706.3 1198.3,3025.3 1198.3,3033.6 1191.2,3037.8 900.6,3211.4 
	893.3,3215.8 885.7,3211.8 595.5,3060.3 586.8,3055.7 587,3045.9 593,2693.2 601.2,2707.5 302.6,2538.7 294.3,2534 294.3,2524.5 
	293.7,2201.8 293.7,2192.3 301.9,2187.5 596.8,2013.8 588.6,2027.9 592.8,1688 601.7,1702.7 305.8,1551.6 297,1547.1 297,1537.3 
	297.4,1188.9 305.7,1202.7 8,1042.6 0,1038.3 0.1,1029.3 5.2,693.2 5.3,685 12.4,681 308.5,514.7 315.1,511 321.6,514.8 
	610.2,684.5 598,684.7 886.4,506.4 881.4,515.3 883.4,178.4 883.4,173 888,170.4 1185.9,2.1 1189.6,0 1193.2,2 1488.2,170 
	1490.9,171.5 1490.9,174.4 1488.6,527.1 1488.6,528.8 1487.1,529.7 1192.4,692.2 1484.3,524.6 1482.8,527.1 1480.6,174.4 
	1483.2,178.9 1186,14.9 1193.3,14.9 897.1,186.3 901.7,178.4 902.4,515.4 902.5,521.1 897.5,524.3 610.5,704.7 604.6,708.5 
	598.3,704.9 308.4,537.5 321.5,537.5 26.5,705.8 33.7,693.6 30,1029.7 22.1,1016.3 320.5,1175.1 328.7,1179.5 328.7,1188.9 
	329.2,1537.3 320.4,1523 616.5,1673.7 625.5,1678.2 625.4,1688.4 621.7,2028.3 621.6,2037.6 613.6,2042.3 318.7,2216 326.9,2201.7 
	326.9,2524.4 318.7,2510.3 617,2679.5 625.4,2684.2 625.2,2693.8 618.6,3046.5 610.2,3032.2 899.8,3184.8 884.9,3185.2 
	1176.2,3012.6 1169,3025.1 1171.2,2706.2 1171.3,2698 1178.4,2694 1476.3,2526.5 1469.8,2537.6 1472.9,2203.9 1473,2197.4 
	1478.5,2194.1 1767.1,2022.4 1762.2,2031.1 1762.8,1692.1 1767.4,1699.8 1475.1,1533.9 1471.5,1531.8 1471.5,1527.8 1473.6,1198.2 
	1476,1202.4 1190.5,1024.1 1189.2,1023.3 1189.1,1021.8 "/>
<path class="st0" d="M846.1,2758l-9.5,5.5c0,0,0,0.1,0.1,0.1L846.1,2758C846.1,2758,846.1,2758,846.1,2758"/>
<path class="st0" d="M999,2785.8c42.7-51.7-49.9-115.4-76-43.9l-24.5-14.2l-24.5,14.1c-8-14.4-8.6-26.2-36.1-32
	c-19.8-3.1-46.7,18.7-50.2,38.7c-3.9,21,8.5,35.8,10.3,37.2l-22.1,12.8v141.6l41.6,24c0.5,0.3,38.3,22.1,38.8,22.4l42.1,24.3
	l122.6-70.8v-141.6L999,2785.8z M995.4,2780.6c-19.1,10.7-41.8,17.1-63.7,20l0,0c-2.9,0.5-5.6,0.9-8.4,1.4c0.2-3,0.2-6.2-0.4-9.2
	c13.8-5.8,26.4-12.2,38-21.5h0c1.8-1.5,3.6-3,5.2-4.6h0c0,0,0,0,0,0c5.4-5.2,10.7-11.7,12.8-19c7.7-0.7,15.8,0.3,24.5,3.6
	C1005.8,2766.1,997.2,2778.3,995.4,2780.6 M955,2768c-7.4,5.7-17.8,11.9-32.4,18.2c5.4-7.4,13-16.4,22.5-23.9L955,2768z M951,2758.1
	c6.3-4.1,13.3-7.4,20.9-9.2c-1.5,3.4-4.8,8.5-11.5,14.6L951,2758.1z M925.6,2750.6c1.8-3.7,8.7-17.3,10.7-21.2
	c18-23.4,51.9-13.9,65.2,14.7c-8.6-2.7-17.2-3.4-25.8-2.3c0,0-0.1,0-0.1,0c-16.6,2.2-31.4,11.7-43.2,23.3
	c-5.2,5.2-10.7,11.6-14.8,17.3c-1.6-1.8-3.6-3.3-5.7-4.5c0.4-0.8,2.7-5.4,3.2-6.3h0C916.7,2768.3,923.7,2754.3,925.6,2750.6
	 M913.8,2809.7L913.8,2809.7c-1.6,2-3.6,3.7-6,4.8c-2.9,1.5-6.3,1.6-9.6,1.5c-4.4,0.2-8.8-1-12.1-3.9c-6.7-5.6-7.3-16.8-2.7-23.8
	c4.4-6.8,13.1-7.7,20.4-6.6C916.5,2783.6,921.1,2800.2,913.8,2809.7 M898.5,2735l21.7,12.5c-1.1,2.1-13.7,27.1-14.2,28.3
	c-1.1-0.2-2.2-0.4-3.3-0.5c0,0,0,0,0,0c-3.6-0.1-8-0.3-11.4,0.6c-1.2-2.3-12.8-25.5-14.3-28.4L898.5,2735z M860.8,2729.4
	c5.2,10.3,13.1,26.1,18.3,36.4h0c1.8,3.6,4.5,8.9,6.3,12.5c-2.1,1.2-4,2.8-5.5,4.6c-4.6-6.4-10.5-13.4-16.4-19
	c-3.5-3.4-7.3-6.5-11.2-9.3c-16.2-11.8-37-16.9-56.5-10.5C808.8,2715.5,842.8,2706.1,860.8,2729.4 M851.6,2762
	c8.5,6.6,17.4,16.7,22.7,24.2c-14.8-6.3-25.2-12.6-32.7-18.4L851.6,2762z M836.6,2763.6C836.6,2763.6,836.6,2763.5,836.6,2763.6
	c-6.9-6.2-10.2-11.5-11.6-14.9c7.1,1.6,14.2,4.7,21.1,9.3c0,0,0,0,0.1,0L836.6,2763.6z M793.5,2751.4c8.2-3.2,16.4-4.4,24.4-3.8
	c8.5,23.2,35,35.8,56.8,45.5c-0.1,0.3-0.1,0.6-0.2,1c-0.4,2.6-0.3,5.5-0.2,8.1c-23.8-3.3-49.2-8.6-70.1-20.1
	C798.6,2779,792.2,2768.3,793.5,2751.4 M817.6,2956.9l-35.4-20.5v-95.7l36.5,21.1L817.6,2956.9z M818.7,2854.7l-36.5-21.2v-27.8
	L819,2827L818.7,2854.7z M785.3,2800.3l19.3-11.1c11.1,5.4,29.1,12.9,47.5,15.5l-29.5,17.2L785.3,2800.3z M853.5,2839.7l-3.1,1.8
	c0,26.2-0.2,106.8-0.2,134.2c0.1,0.1,0.2,0.2,0.4,0.2c-6.6-3.8-18.6-10.8-26.7-15.4c0.3-27.5,1.1-106.9,1.4-133
	c0.4-0.2,34.7-20.2,36.3-21.2c5.7,1,10.9,1.8,14.5,2.4c2.1,4.9,5.9,8.9,10.6,11.2L853.5,2839.7z M895.4,3001.9l-39-22.5l0.2-95.5
	l39.5,22.9L895.4,3001.9z M896.1,2899.5l-39.6-22.9l0.1-27.9l39.7,22.9L896.1,2899.5z M859.7,2843.3l35.5-21.1
	c1.9,0.1,5.5,0.1,7.4,0l35.8,21.2l-38.9,22.8L859.7,2843.3z M940.6,2849.4l0,26.7l-38.2,21.4l0.2-25.8L940.6,2849.4z M901.7,3001.8
	l0.7-97.1l38.3-21.4l0.2,96L901.7,3001.8z M947,2975.5c0-28-0.2-107.7-0.2-134.3l-2.3-1.3l-33.5-19.9c4.8-2.4,8.5-6.4,10.6-11.3
	c3.7-0.6,8.9-1.5,14.4-2.4c0.9,0.5,35.9,20.9,35.9,20.9c0.3,26,1.1,105.8,1.4,133L947,2975.5z M945.6,2804.5
	c18-2.5,36-10.1,46.8-15.4l19.4,11.2l-36.5,21.4L945.6,2804.5z M1014.8,2936.5l-35.3,20.4l-1-94.8l36.3-20.3V2936.5z M1014.8,2834.8
	c-1.2,0-35.2,19.7-36.3,20.1l-0.3-27.6l36.6-21.5V2834.8z"/>
<path class="st0" d="M874.5,2798.4c0,0.1,0,0.1,0,0.2c-0.1-0.1-0.1-0.2-0.1-0.2C874.4,2798.4,874.5,2798.4,874.5,2798.4"/>
<path class="st0" d="M1360.2,283.8l-63.5-36.8l-20.8,37.4l-78.6,136.5l0.6,74.6l63-37.9L1360.2,283.8z M1300.9,258.7l48.3,27.8
	l-15.7,27.7l-48.2-28.4L1300.9,258.7z M1205.5,481.7l-0.2-14.3l11.9,7.2L1205.5,481.7z M1224.9,470.1l-19.7-11.8l-0.3-23.9
	l40.5,23.4L1224.9,470.1z M1254.4,452.9l-50.1-28.6l75.9-131.6l50.2,29.3L1254.4,452.9z"/>
<path class="st0" d="M1174.2,461.7c-0.1-5.6-0.8-12.4-6-14.6c-5-2.1-11.5,0.9-22.2,10.6c0.6-1.9,1.2-3.9,1.8-5.7
	c4-12.7,9.5-30,7.1-42.9c-1.4-7.4-2-10.8-5.8-11.1c-3.6-0.3-4.6,2.8-6.1,7.1c-2.7,7.9-8.4,24.4-24.9,35.3c-0.8,0.5-1.4,0.9-2,1.2
	c1.4-5.5,6.7-17.1,10.8-26c14.2-31.1,22.8-52,13.3-59.8c-3.4-2.7-6.4-2.6-8.3-2c-7.1,2.1-10.9,13.6-16.1,29.5
	c-5.6,17.1-12.7,38.5-24.2,44.4c-2.1,1.1-3.4,1.5-4.1,1.6c-0.3-4,4.1-16.2,8.1-27c6-16.6,13.5-37.3,17.5-59.3
	c2.1-11.3,2.3-18.2-2.8-19.9c-4.2-1.3-9.1,0.2-26.8,32.9c-8.8,16.2-16.8,32.9-16.9,33c-0.9,2-0.1,4.3,1.8,5.2c2,0.9,4.3,0.1,5.2-1.8
	c11.4-23.8,25.9-50.4,32.9-59.1c-0.1,1.8-0.5,4.5-1.1,8.2c-3.9,21.3-11.2,41.6-17.1,58c-7.5,20.8-11.3,31.3-6,36
	c4.1,3.6,10.6,0.3,13-0.9c14.4-7.4,21.7-29.4,28.1-48.9c3.3-9.9,7.7-23.5,10.9-24.4c0.1,0,0.5,0.1,1.2,0.6c0.5,0.4,2.9,3.2-1.7,17.3
	c-3.2,10-8.9,22.2-13.8,33.1c-10.6,23.1-14.6,32.6-9.7,36.8c4,3.4,9.9-0.6,12.4-2.2c14.2-9.5,21.3-22.4,25.1-31.8
	c0.2,10.6-4.1,24.1-7.3,34.4c-3.8,11.9-5.3,16.8-1.3,19.3c3.8,2.4,7.9-1.5,10.7-4c12.2-11.3,15.3-10.7,15.4-10.7
	c0.1,0,1.2,1.1,1.3,7.6c0.2,15.6,19.5,31.1,20.4,31.8c0.7,0.6,1.6,0.9,2.4,0.9c1.2,0,2.3-0.5,3.1-1.5c1.3-1.7,1.1-4.2-0.6-5.5
	C1186.8,483.7,1174.3,471.6,1174.2,461.7"/>
<g>
	<defs>
		<polygon id="SVGID_1_" points="1188.5,698.1 1194.7,1021.7 1193.4,1019.4 1481.1,1194.1 1483.4,1195.5 1483.4,1198.2 
			1485.5,1527.8 1481.9,1521.7 1776,1684.3 1780.5,1686.8 1780.6,1692 1782.5,2031.1 1782.5,2036.8 1777.6,2039.8 1490.4,2213.9 
			1495.9,2204.1 1495.5,2537.7 1495.5,2545.1 1489,2548.8 1192.3,2718.5 1199.4,2706.3 1198.3,3025.3 1198.3,3033.6 1191.2,3037.8 
			900.6,3211.4 893.3,3215.8 885.7,3211.8 595.5,3060.3 586.8,3055.7 587,3045.9 593,2693.2 601.2,2707.5 302.6,2538.7 294.3,2534 
			294.3,2524.5 293.7,2201.8 293.7,2192.3 301.9,2187.5 596.8,2013.8 588.6,2027.9 592.8,1688 601.7,1702.7 305.8,1551.6 
			297,1547.1 297,1537.3 297.4,1188.9 305.7,1202.7 8,1042.6 0,1038.3 0.1,1029.3 5.2,693.2 5.3,685 12.4,681 308.5,514.7 
			315.1,511 321.6,514.8 610.2,684.5 598,684.7 886.4,506.4 881.4,515.3 883.4,178.4 883.4,173 888,170.4 1185.9,2.1 1189.6,0 
			1193.2,2 1488.2,170 1490.9,171.5 1490.9,174.4 1488.6,527.1 1488.6,528.8 1487.1,529.7 1192.4,692.2 1484.3,524.6 1482.8,527.1 
			1480.6,174.4 1483.2,178.9 1186,14.9 1193.3,14.9 897.1,186.3 901.7,178.4 902.4,515.4 902.5,521.1 897.5,524.3 610.5,704.7 
			604.6,708.5 598.3,704.9 308.4,537.5 321.5,537.5 26.5,705.8 33.7,693.6 30,1029.7 22.1,1016.3 320.5,1175.1 328.7,1179.5 
			328.7,1188.9 329.2,1537.3 320.4,1523 616.5,1673.7 625.5,1678.2 625.4,1688.4 621.7,2028.3 621.6,2037.6 613.6,2042.3 
			318.7,2216 326.9,2201.7 326.9,2524.4 318.7,2510.3 617,2679.5 625.4,2684.2 625.2,2693.8 618.6,3046.5 610.2,3032.2 
			899.8,3184.8 884.9,3185.2 1176.2,3012.6 1169,3025.1 1171.2,2706.2 1171.3,2698 1178.4,2694 1476.3,2526.5 1469.8,2537.6 
			1472.9,2203.9 1473,2197.4 1478.5,2194.1 1767.1,2022.4 1762.2,2031.1 1762.8,1692.1 1767.4,1699.8 1475.1,1533.9 1471.5,1531.8 
			1471.5,1527.8 1473.6,1198.2 1476,1202.4 1190.5,1024.1 1189.2,1023.3 1189.1,1021.8 		"/>
	</defs>
	<clipPath id="SVGID_2_">
		<use xlink:href="#SVGID_1_"  style="overflow:visible;"/>
	</clipPath>
	<polygon class="st1" points="758.7,2070.5 -163.3,1794.5 -223.3,-323.5 1332.7,-299.5 1772.7,394.5 1152.7,720.5 	"/>
</g>
</svg>
