<?xml version="1.0" encoding="utf-8"?>
<!-- Generator: Adobe Illustrator 16.0.0, SVG Export Plug-In . SVG Version: 6.00 Build 0)  -->
<!DOCTYPE svg PUBLIC "-//W3C//DTD SVG 1.1//EN" "http://www.w3.org/Graphics/SVG/1.1/DTD/svg11.dtd">
<svg version="1.1" id="Layer_1" xmlns="http://www.w3.org/2000/svg" xmlns:xlink="http://www.w3.org/1999/xlink" x="0px" y="0px"
	 width="218.972px" height="185.284px" viewBox="0 0 218.972 185.284" enable-background="new 0 0 218.972 185.284"
	 xml:space="preserve">
<g>
	<path fill="#E2E2E2" d="M75.798,0H25.266C18.248,0,12.283,2.455,7.369,7.369C2.457,12.281,0,18.246,0,25.267v50.531
		c0,7.018,2.457,12.982,7.369,17.896c4.914,4.912,10.879,7.369,17.896,7.369h29.478c3.51,0,6.493,1.229,8.947,3.686
		c2.458,2.455,3.686,5.439,3.686,8.949v4.211c0,9.297-3.29,17.238-9.869,23.818c-6.58,6.578-14.52,9.869-23.818,9.869h-8.423
		c-2.28,0-4.254,0.832-5.921,2.5c-1.666,1.666-2.5,3.639-2.5,5.922v16.844c0,2.281,0.835,4.254,2.5,5.922
		c1.667,1.666,3.641,2.5,5.921,2.5h8.423c9.125,0,17.83-1.775,26.121-5.33c8.29-3.553,15.462-8.355,21.516-14.408
		c6.053-6.055,10.855-13.227,14.409-21.516c3.553-8.291,5.329-16.998,5.329-26.121V25.267c0-7.021-2.455-12.985-7.369-17.897
		C88.782,2.455,82.817,0,75.798,0z M99.063,117.909c0,8.808-1.738,17.331-5.167,25.333c-3.438,8.017-8.143,15.045-13.985,20.89
		c-5.845,5.844-12.873,10.549-20.89,13.984c-7.999,3.429-16.522,5.168-25.333,5.168h-8.423c-1.744,0-3.218-0.626-4.508-1.915
		c-1.288-1.289-1.914-2.764-1.914-4.507v-16.844c0-1.744,0.626-3.219,1.915-4.508c1.288-1.288,2.762-1.914,4.507-1.914h8.423
		c9.804,0,18.293-3.518,25.232-10.455c6.938-6.938,10.455-15.428,10.455-25.232v-4.211c0-4.046-1.438-7.533-4.272-10.364
		c-2.829-2.833-6.315-4.271-10.36-4.271H25.266c-6.524,0-11.916-2.219-16.482-6.783C4.219,87.714,2,82.322,2,75.798V25.267
		c0-6.527,2.219-11.919,6.783-16.483S18.739,2,25.266,2h50.532c6.528,0,11.92,2.219,16.482,6.783
		c4.564,4.563,6.783,9.955,6.783,16.483V117.909z"/>
	<path fill="#E2E2E2" d="M211.603,7.369C206.69,2.455,200.726,0,193.706,0h-50.532c-7.018,0-12.982,2.455-17.897,7.369
		c-4.912,4.912-7.369,10.877-7.369,17.897v50.531c0,7.018,2.457,12.982,7.369,17.896c4.915,4.912,10.88,7.369,17.897,7.369h29.478
		c3.51,0,6.492,1.229,8.947,3.686c2.457,2.455,3.686,5.439,3.686,8.949v4.211c0,9.297-3.291,17.238-9.87,23.818
		c-6.579,6.578-14.519,9.869-23.818,9.869h-8.422c-2.28,0-4.255,0.832-5.922,2.5c-1.665,1.666-2.5,3.639-2.5,5.922v16.844
		c0,2.281,0.835,4.254,2.5,5.922c1.667,1.666,3.642,2.5,5.922,2.5h8.422c9.125,0,17.831-1.775,26.122-5.33
		c8.289-3.553,15.461-8.355,21.515-14.408c6.054-6.055,10.856-13.227,14.409-21.516c3.554-8.291,5.33-16.998,5.33-26.121V25.267
		C218.972,18.246,216.517,12.281,211.603,7.369z M216.972,117.909c0,8.809-1.739,17.332-5.168,25.333
		c-3.437,8.017-8.142,15.045-13.985,20.89c-5.845,5.844-12.872,10.548-20.889,13.984c-7.999,3.429-16.522,5.168-25.334,5.168h-8.422
		c-1.744,0-3.219-0.626-4.508-1.915c-1.287-1.289-1.914-2.764-1.914-4.507v-16.844c0-1.744,0.626-3.219,1.915-4.508
		c1.287-1.288,2.761-1.914,4.507-1.914h8.422c9.805,0,18.294-3.518,25.232-10.455c6.938-6.938,10.456-15.429,10.456-25.232v-4.211
		c0-4.045-1.438-7.531-4.271-10.364c-2.832-2.833-6.318-4.271-10.361-4.271h-29.478c-6.524,0-11.916-2.219-16.483-6.784
		c-4.564-4.565-6.783-9.957-6.783-16.481V25.267c0-6.527,2.219-11.919,6.783-16.483C131.256,4.219,136.647,2,143.174,2h50.532
		c6.528,0,11.92,2.219,16.482,6.783c4.564,4.563,6.783,9.955,6.783,16.483V117.909z"/>
</g>
</svg>
