<?xml version="1.0" encoding="utf-8"?>
<!-- Generator: Adobe Illustrator 24.2.3, SVG Export Plug-In . SVG Version: 6.00 Build 0)  -->
<svg version="1.1" id="Layer" xmlns="http://www.w3.org/2000/svg" xmlns:xlink="http://www.w3.org/1999/xlink" x="0px" y="0px"
	 viewBox="0 0 506.5 320" style="enable-background:new 0 0 506.5 320;" xml:space="preserve">
<path d="M16,144c-8.9,0-16,7.2-16,16c0,8.8,7.2,16,16,16h442.2L335.5,292.4c-6.4,6.1-6.7,16.2-0.6,22.6c3.2,3.3,7.4,5,11.6,5
	c3.9,0,7.9-1.4,11-4.4l139.3-132.7c6.4-6.3,9.7-14.4,9.7-22.9s-3.4-16.6-9.4-22.6L357.5,4.4c-6.4-6-16.5-5.8-22.6,0.6
	c-6,6.4-5.8,16.5,0.6,22.6L457.7,144H16L16,144z"/>
</svg>
