<?xml version="1.0" encoding="utf-8"?>
<!-- Generator: Adobe Illustrator 23.1.1, SVG Export Plug-In . SVG Version: 6.00 Build 0)  -->
<svg version="1.1" id="Layer_1" xmlns="http://www.w3.org/2000/svg" xmlns:xlink="http://www.w3.org/1999/xlink" x="0px" y="0px"
	 viewBox="0 0 257.9 386.4" style="enable-background:new 0 0 257.9 386.4;" xml:space="preserve">
<g>
	<path d="M69.5,117l10,5.8l-0.1,14.9l0,3.9l3.4,2.1l17.1,10.4l3.6,2.2l3.6-2.1l13.2-7.8l10.7,6.2l0.2,11.2l-13.6,7.4l-3.7,2l0,4.2
		l0.2,20.2l0,3.8l3.2,2l13.8,9l-0.5,12l-10.5,6.1l-13.5-7.9l-3.5-2.1l-3.5,2l-16.3,9.4l-3.4,2l-0.1,4l-0.3,16.1l-10,6.2l-10.4-5.9
		l-0.1-16l0-4l-3.5-2l-18.1-10.3l-3.6-2l-3.5,2.2l-12.8,7.8l-10-5.7l-0.2-12.2l14.1-8.2l3.5-2l0-4.1l-0.1-18.3l0-4l-3.5-2l-14-8.1
		v-12.1l10.9-6.3l13.2,7.5l3.5,2l3.5-2l17.3-10l3.5-2l0-4L59,123L69.5,117z M69.5,108.9L52.1,119l-0.1,19.2l-17.3,10l-16.7-9.5
		L0,149v20.2l17.5,10.1l0.1,18.3L0,207.8l0.3,20.3l17.1,9.7l16.3-10l18.1,10.3l0.1,20l17.6,9.9l16.8-10.3l0.4-19.9l16.3-9.4l17,10
		l17.4-10l0.9-19.8l-17.2-11.2l-0.2-20.2l17.3-9.5l-0.3-19.4l-17.7-10.2l-16.7,9.9l-17.1-10.4l0.1-19L69.5,108.9z"/>
	<path d="M69.1,168.1c11.3,0,20.4,9.2,20.4,20.4c0,11.3-9.2,20.4-20.4,20.4s-20.4-9.2-20.4-20.4C48.7,177.3,57.9,168.1,69.1,168.1
		 M69.1,161.1c-15.1,0-27.4,12.3-27.4,27.4c0,15.1,12.3,27.4,27.4,27.4c15.1,0,27.4-12.3,27.4-27.4
		C96.6,173.4,84.3,161.1,69.1,161.1"/>
	<path d="M189.2,8.1l10,5.8l-0.1,14.9l0,3.9l3.4,2.1l17.1,10.4l3.6,2.2l3.6-2.1l13.2-7.8l10.7,6.2l0.2,11.2l-13.6,7.4l-3.7,2l0,4.2
		l0.2,20.2l0,3.8l3.2,2l13.8,9l-0.5,12l-10.5,6.1l-13.5-7.9l-3.5-2.1l-3.5,2l-16.3,9.4l-3.4,2l-0.1,4l-0.3,16.1l-10,6.2l-10.4-5.9
		l-0.1-16l0-4l-3.5-2l-18.1-10.3l-3.6-2l-3.5,2.2l-12.8,7.8l-10-5.7l-0.2-12.2l14.1-8.2l3.5-2l0-4.1l-0.1-18.3l0-4l-3.5-2l-14-8.1
		V44.2l10.9-6.3l13.2,7.5l3.5,2l3.5-2l17.3-10l3.5-2l0-4l0.1-15.2L189.2,8.1z M189.2,0l-17.4,10.1l-0.1,19.2l-17.3,10l-16.7-9.5
		l-17.9,10.3v20.2l17.5,10.1l0.1,18.3l-17.7,10.2l0.3,20.3l17.1,9.7l16.3-10l18.1,10.3l0.1,20l17.6,9.9l16.8-10.3l0.4-19.9l16.3-9.4
		l17,10l17.4-10l0.9-19.8l-17.2-11.2l-0.2-20.2l17.3-9.5l-0.3-19.4l-17.7-10.2l-16.7,9.9l-17.1-10.4l0.1-19L189.2,0z"/>
	<path d="M188.8,59.2c11.3,0,20.4,9.2,20.4,20.4c0,11.3-9.2,20.4-20.4,20.4c-11.3,0-20.4-9.2-20.4-20.4
		C168.4,68.4,177.5,59.2,188.8,59.2 M188.8,52.2c-15.1,0-27.4,12.3-27.4,27.4c0,15.1,12.3,27.4,27.4,27.4
		c15.1,0,27.4-12.3,27.4-27.4C216.2,64.5,203.9,52.2,188.8,52.2"/>
	<path d="M172.7,235.2l10,5.8l-0.1,14.9l0,3.9l3.4,2.1l17.1,10.4l3.6,2.2l3.6-2.1l13.2-7.8l10.7,6.2l0.2,11.2l-13.6,7.4l-3.7,2
		l0,4.2l0.2,20.2l0,3.8l3.2,2.1l13.8,9l-0.5,12l-10.5,6.1l-13.5-7.9l-3.5-2.1l-3.5,2l-16.3,9.4l-3.4,2l-0.1,4l-0.3,16.1l-10,6.2
		l-10.4-5.9l-0.1-16l0-4l-3.5-2l-18.1-10.3l-3.6-2l-3.5,2.2l-12.8,7.8l-10-5.7l-0.2-12.2l14.1-8.2l3.5-2l0-4.1l-0.1-18.3l0-4l-3.5-2
		l-14-8.1v-12.1l10.9-6.3l13.2,7.5l3.5,2l3.5-2l17.3-10l3.5-2l0-4l0.1-15.2L172.7,235.2z M172.7,227.2l-17.4,10.1l-0.1,19.2
		l-17.3,10l-16.7-9.5l-17.9,10.3v20.2l17.5,10.1l0.1,18.3l-17.7,10.2l0.3,20.3l17.1,9.7l16.3-10l18.1,10.3l0.1,20l17.6,9.9
		l16.8-10.3l0.4-19.9l16.3-9.4l17,10l17.4-10l0.9-19.8l-17.2-11.2l-0.2-20.2l17.3-9.5l-0.3-19.4l-17.7-10.2l-16.7,9.9L189.6,256
		l0.1-19L172.7,227.2z"/>
	<path d="M172.3,286.4c11.3,0,20.4,9.2,20.4,20.4c0,11.3-9.2,20.4-20.4,20.4c-11.3,0-20.4-9.2-20.4-20.4
		C151.9,295.5,161,286.4,172.3,286.4 M172.3,279.4c-15.1,0-27.4,12.3-27.4,27.4c0,15.1,12.3,27.4,27.4,27.4
		c15.1,0,27.4-12.3,27.4-27.4C199.7,291.6,187.4,279.4,172.3,279.4"/>
</g>
</svg>
