<?xml version="1.0" encoding="utf-8"?>
<!-- Generator: Adobe Illustrator 23.1.1, SVG Export Plug-In . SVG Version: 6.00 Build 0)  -->
<svg version="1.1" id="Layer_1" xmlns="http://www.w3.org/2000/svg" xmlns:xlink="http://www.w3.org/1999/xlink" x="0px" y="0px"
	 viewBox="0 0 309.6 358.2" style="enable-background:new 0 0 309.6 358.2;" xml:space="preserve">
<line x1="280.5" y1="86" x2="280.3" y2="242.6"/>
<line x1="212.1" y1="126.3" x2="211.9" y2="243.2"/>
<line x1="148.7" y1="285.3" x2="148.9" y2="160.3"/>
<path d="M309.6,248.4l-0.4-179.3L189.1,0l-51.2,30.5l119.5,68.7l0.4,171.8l-2.8-1.7l-13.9-8.3v-0.9l-0.3-150.6l-95.9-55.2l-0.2-0.1
	l0.1-19.7l-7.1-4.1l0,19.8l-17.1-9.8L69.5,70.8l7,4L189,139.5l0.4,171.8l-2.8-1.7l-14.5-8.6v-0.9l-0.3-151.2L76.5,94.1L76.3,94
	l0.2-19.1l-7.1-4.1l0,19.2L51.6,79.8L0.4,110.3l7,4L119.9,179l0.4,171.8l-2.8-1.7L37,301.3L7.5,283.8L7,283.9l0.4-169.6l-7.1-4.1
	L0,287.9l121.1,70.3l51-29.9l0-20l18.1,10.5l51-29.9l0-20.5l17.4,10.1L309.6,248.4z M128,346l-1.1-167.1l0-4l-3.5-2L14.3,110.1
	l37.4-22.2L164.8,153l0.3,171.2L128,346z M197.1,306.6l-0.4-64.1l0-4.1l0-3.8v-0.3l-0.6-94.9l0-4l-3.5-2L83.3,70.7l37.4-22.3
	l113.1,65.1l0.3,142.5v0.8l0,3.3v4.1l0,20.6L197.1,306.6z M151.7,30.4l37.4-22.3l113.1,65.1l0.3,171.2l-37.1,21.8l-1.1-171.1
	L151.7,30.4z"/>
<path d="M105.1,189.5l-83-46.6v46.4l83,46.1V189.5z M98,224.5l-68.9-39.4v-30.3L98,193.5V224.5z"/>
</svg>
