<?xml version="1.0" encoding="utf-8"?>
<!-- Generator: Adobe Illustrator 23.1.1, SVG Export Plug-In . SVG Version: 6.00 Build 0)  -->
<svg version="1.1" id="Layer_1" xmlns="http://www.w3.org/2000/svg" xmlns:xlink="http://www.w3.org/1999/xlink" x="0px" y="0px"
	 viewBox="0 0 287.4 257.7" style="enable-background:new 0 0 287.4 257.7;" xml:space="preserve">
<g>
	<path d="M128.7,228.3v-44.7l-27.5-26.1c-3.1-3-7.2-4.6-11.5-4.6h-8c-1.2,0-2.3-0.5-3.2-1.3l-22-20.9l-0.7-0.5
		c-2-1.2-5.1-2.4-8.6-2.7c-2-2.7-6.7-10.4-7.5-24.5c-0.1-1.8,0.4-5,0.8-8.1c0.7-4.9,1.5-10,0.7-13.7c-1.1-5-7.2-12-10.7-15.8
		c-2.6-2.8-5.9-3.9-9.4-3.1C11.9,64.3,4.4,80.1,3.1,84.3c-1.5,5-2.7,18.7-3.1,24.4c-0.1,0.7-0.1,1.3,0,2l3.7,55.6
		c0.3,3.7,1.8,7.3,4.3,10.1L53.5,224v3.7h-2c-5.6,0-10.1,4.5-10.1,10.1v19.9h8.4v-19.9c0-1,0.8-1.7,1.7-1.7h74
		c0.9,0,1.7,0.8,1.7,1.7v19.9h8.4v-19.9C135.5,233.4,132.7,229.7,128.7,228.3 M120.3,227.7H61.9v-7.1l-47.7-49.9
		c-1.2-1.4-2-3.1-2.1-5l-3.7-55.6c0-0.3,0-0.6,0-0.8c0.6-8.2,1.7-19,2.7-22.5c1.5-4.8,7.9-15.5,11.9-16.4c0.3-0.1,0.6-0.2,1.4,0.6
		c4.6,4.9,8.2,9.9,8.6,11.9c0.5,2.2-0.2,6.9-0.8,10.6c-0.5,3.7-1.1,7.1-0.9,9.9c0.8,12.6,4.2,20.9,7,25.8c-1.4,0.8-2.7,1.8-4,3.2
		c-7.5,8.4-3.4,18.5-0.2,22.8l32.5,33.2l6-5.9l-32-32.6c-0.9-1.3-4.4-7-0.1-11.9c3.6-4,9-1.6,10.4-0.8l21.6,20.5
		c2.4,2.3,5.6,3.6,8.9,3.6h8c2.2,0,4.2,0.8,5.8,2.3l24.9,23.6V227.7z"/>
	<path d="M287.3,108.7c-0.4-5.7-1.5-19.3-3.1-24.4c-1.3-4.3-8.8-20-18-22.1c-3.5-0.8-6.8,0.3-9.4,3.1c-3.5,3.8-9.6,10.8-10.7,15.8
		c-0.8,3.7-0.1,8.8,0.7,13.7c0.5,3.1,0.9,6.3,0.8,8.1c-0.9,14.2-5.5,21.9-7.5,24.5c-3.5,0.3-6.6,1.6-8.6,2.7l-0.7,0.5l-22,20.9
		c-0.9,0.8-2,1.3-3.2,1.3h-8c-4.3,0-8.4,1.6-11.5,4.6l-27.5,26.1v44.7c-4,1.4-6.8,5.1-6.8,9.5v19.9h8.4v-19.9c0-0.9,0.8-1.7,1.7-1.7
		h74c0.9,0,1.7,0.8,1.7,1.7v19.9h8.4v-19.9c0-5.6-4.5-10.1-10.1-10.1h-2V224l45.4-47.5c2.6-2.9,4.1-6.4,4.3-10.1l3.7-55.6
		C287.4,110,287.4,109.4,287.3,108.7 M275.3,165.8c-0.1,1.8-0.9,3.6-2.1,5l-47.7,49.9v7.1h-58.4v-40.5l24.9-23.6
		c1.6-1.5,3.6-2.3,5.8-2.3h8c3.3,0,6.5-1.3,8.9-3.6l21.6-20.6c1.5-0.8,6.8-3.2,10.4,0.8c4.3,4.8,0.8,10.6-0.1,11.9l-32,32.6l6,5.9
		l32.5-33.2c3.2-4.2,7.3-14.4-0.2-22.8c-1.2-1.4-2.6-2.4-4-3.2c2.8-4.9,6.3-13.2,7-25.8c0.2-2.7-0.3-6.2-0.9-9.9
		c-0.5-3.8-1.2-8.5-0.8-10.6c0.4-2,4.1-7,8.6-11.9c0.7-0.8,1.1-0.7,1.4-0.6c4,0.9,10.4,11.5,11.9,16.4c1.1,3.4,2.1,14.3,2.7,22.5
		c0,0.3,0,0.5,0,0.8L275.3,165.8z"/>
	<path d="M212.6,38.9L144.8,0L76.1,39.3l-0.4,79.4l68.6,38.7l68.6-40.3L212.6,38.9z M201.6,40.6l-58.2,33.1L86.7,41.3l58.1-33.3
		L201.6,40.6z M83.1,47.3l56.8,32.5l0.9,67.6l-58-32.8L83.1,47.3z M147.8,147.3l-0.9-67.5l58.7-33.4l0.3,66.8L147.8,147.3z"/>
</g>
</svg>
