<?xml version="1.0" encoding="utf-8"?>
<!-- Generator: Adobe Illustrator 16.0.0, SVG Export Plug-In . SVG Version: 6.00 Build 0)  -->
<!DOCTYPE svg PUBLIC "-//W3C//DTD SVG 1.1//EN" "http://www.w3.org/Graphics/SVG/1.1/DTD/svg11.dtd">
<svg version="1.1" id="Capa_1" xmlns="http://www.w3.org/2000/svg" xmlns:xlink="http://www.w3.org/1999/xlink" x="0px" y="0px"
	 width="33px" height="33px" viewBox="281.14 404.445 33 33" enable-background="new 281.14 404.445 33 33" xml:space="preserve">
<g transform="translate(-1 -1)">
	<g>
		<g>
			<path fill="#DA2343" d="M314.275,430.903l-6.68-4.455c-0.848-0.561-1.983-0.376-2.61,0.425l-1.945,2.501
				c-0.25,0.33-0.705,0.426-1.066,0.225l-0.37-0.204c-1.228-0.669-2.754-1.501-5.829-4.578c-3.076-3.077-3.91-4.604-4.579-5.829
				l-0.203-0.37c-0.204-0.362-0.11-0.818,0.22-1.07l2.5-1.945c0.8-0.627,0.985-1.763,0.424-2.61l-4.454-6.68
				c-0.574-0.863-1.726-1.123-2.614-0.588l-2.793,1.678c-0.877,0.516-1.521,1.352-1.796,2.332c-1.006,3.665-0.25,9.989,9.067,19.307
				c7.411,7.411,12.928,9.404,16.721,9.404c0.872,0.003,1.742-0.11,2.584-0.338c0.98-0.275,1.816-0.919,2.332-1.797l1.68-2.791
				C315.398,432.629,315.138,431.477,314.275,430.903z M313.914,432.954l-1.675,2.793c-0.371,0.634-0.972,1.1-1.678,1.3
				c-3.383,0.929-9.294,0.16-18.238-8.785c-8.945-8.944-9.714-14.854-8.785-18.238c0.201-0.707,0.667-1.309,1.302-1.679l2.793-1.676
				c0.386-0.232,0.885-0.12,1.134,0.255l2.42,3.633l2.031,3.046c0.243,0.368,0.164,0.861-0.184,1.133l-2.5,1.945
				c-0.761,0.582-0.979,1.635-0.51,2.47l0.199,0.361c0.703,1.289,1.577,2.893,4.767,6.082s4.793,4.063,6.082,4.767l0.361,0.199
				c0.835,0.468,1.889,0.251,2.47-0.51l1.945-2.501c0.272-0.347,0.765-0.427,1.133-0.184l6.679,4.454
				C314.034,432.068,314.147,432.568,313.914,432.954z"/>
			<path fill="#DA2343" d="M300.839,410.948c5.161,0.005,9.343,4.188,9.349,9.349c0,0.304,0.246,0.55,0.55,0.55
				s0.55-0.246,0.55-0.55c-0.006-5.768-4.681-10.442-10.448-10.449c-0.304,0-0.55,0.246-0.55,0.55S300.535,410.948,300.839,410.948z
				"/>
			<path fill="#DA2343" d="M300.839,414.247c3.339,0.004,6.045,2.71,6.049,6.049c0,0.304,0.247,0.55,0.551,0.55
				s0.55-0.246,0.55-0.55c-0.005-3.947-3.203-7.145-7.149-7.149c-0.304,0-0.55,0.247-0.55,0.55S300.535,414.247,300.839,414.247z"/>
			<path fill="#DA2343" d="M300.839,417.546c1.518,0.002,2.748,1.232,2.75,2.75c0,0.304,0.246,0.55,0.55,0.55s0.55-0.246,0.55-0.55
				c-0.003-2.125-1.725-3.847-3.85-3.85c-0.304,0-0.55,0.246-0.55,0.55S300.535,417.546,300.839,417.546z"/>
		</g>
	</g>
</g>
</svg>
